<svg xmlns="http://www.w3.org/2000/svg" width="300" height="400" aria-label="Número 3 estilo Rapunzel rosa y amarillo" role="img" viewBox="0 0 300 400"><defs><linearGradient id="pinkYellowGradient" x1="0" x2="0" y1="0" y2="1"><stop offset="0%" stop-color="#fce26a"/><stop offset="50%" stop-color="#f9a8d4"/><stop offset="100%" stop-color="#f06292"/></linearGradient><filter id="softGlow" width="200%" height="200%" x="-50%" y="-50%" color-interpolation-filters="sRGB"><feDropShadow dx="0" dy="0" flood-color="#f9a8d4" flood-opacity=".7" stdDeviation="5"/></filter><radialGradient id="flowerGradient" cx="50%" cy="50%" r="50%"><stop offset="0%" stop-color="#f48fb1"/><stop offset="100%" stop-color="#c2185b"/></radialGradient></defs><text x="50%" y="70%" fill="url(#pinkYellowGradient)" stroke="#c2185b" stroke-width="3" filter="url(#softGlow)" font-family="'Sacramento', cursive" font-size="230" text-anchor="middle" style="user-select:none">3</text><path fill="none" stroke="#f9a8d4" stroke-linecap="round" stroke-width="10" d="M80 300 Q120 260 140 300 T190 300" opacity=".75"/><path fill="none" stroke="#fce26a" stroke-linecap="round" stroke-width="7" d="M95 320 Q135 280 155 320 T205 320" opacity=".6"/><g transform="translate(70, 210) rotate(-10)"><circle cx="0" cy="0" r="15" fill="url(#flowerGradient)" stroke="#880e4f" stroke-width="1.5"/><circle cx="7" cy="-7" r="6" fill="#fce26a" opacity=".85"/><circle cx="-7" cy="-7" r="6" fill="#fce26a" opacity=".85"/><circle cx="0" cy="8" r="6" fill="#fce26a" opacity=".85"/></g><g transform="translate(190, 280) rotate(20)"><circle cx="0" cy="0" r="18" fill="url(#flowerGradient)" stroke="#880e4f" stroke-width="1.5"/><circle cx="8" cy="-8" r="7" fill="#fce26a" opacity=".9"/><circle cx="-8" cy="-8" r="7" fill="#fce26a" opacity=".9"/><circle cx="0" cy="10" r="7" fill="#fce26a" opacity=".9"/></g><circle cx="140" cy="130" r="6" fill="#fce26a" opacity=".85"/><circle cx="180" cy="90" r="4" fill="#f9a8d4" opacity=".7"/><circle cx="110" cy="70" r="5" fill="#f9a8d4" opacity=".75"/><circle cx="160" cy="170" r="3" fill="#fce26a" opacity=".6"/></svg>